<svg width="207" height="45" viewBox="0 0 207 45" fill="none" xmlns="http://www.w3.org/2000/svg">
<path d="M196.735 36.1738C193.592 36.1015 190.595 35.4147 187.743 34.1135C186.797 33.6797 185.729 33.0532 184.54 32.2339L187.325 28.276C188.295 28.9266 189.133 29.4145 189.836 29.7398C190.831 30.2097 191.954 30.5953 193.204 30.8965C194.466 31.1977 195.703 31.3483 196.917 31.3483C197.984 31.3483 198.931 31.2158 199.756 30.9507C200.593 30.6736 201.242 30.2278 201.703 29.6133C201.995 29.1796 202.14 28.8061 202.14 28.4928C202.14 28.3121 202.11 28.1615 202.049 28.041C201.576 26.9205 200.49 26.0711 198.791 25.4927C197.954 25.2397 197.111 25.1072 196.261 25.0951H195.734C195.309 25.0951 194.89 25.0891 194.478 25.0771C194.199 25.0771 193.756 25.065 193.149 25.0409L193.204 20.2336H194.605C195.163 20.2336 195.721 20.2396 196.28 20.2516C197.202 20.2516 198.094 20.0769 198.955 19.7275C199.962 19.3179 200.642 18.8721 200.994 18.3901C201.212 18.1492 201.321 17.8781 201.321 17.5769C201.321 17.5166 201.315 17.4564 201.303 17.3961C201.206 16.878 200.89 16.4443 200.357 16.0949C199.058 15.3358 197.584 14.9563 195.934 14.9563C195.752 14.9563 195.576 14.9623 195.406 14.9744C193.513 15.0346 191.153 15.7876 188.326 17.2335L186.142 12.9321C189.551 11.1851 192.536 10.2634 195.096 10.167C195.4 10.1429 195.703 10.1309 196.007 10.1309C198.518 10.1309 200.836 10.7574 202.959 12.0104C204.67 13.155 205.72 14.6732 206.108 16.5648C206.157 16.9021 206.181 17.2335 206.181 17.5588C206.181 18.8962 205.732 20.1733 204.834 21.3902C204.288 22.0288 203.906 22.4264 203.687 22.583C204.258 22.9565 204.816 23.4927 205.362 24.1915C205.92 24.8903 206.351 25.6494 206.654 26.4687C206.885 27.1554 207 27.8302 207 28.4928C207 29.8182 206.557 31.1254 205.671 32.4146C204.785 33.6436 203.59 34.5773 202.086 35.2159C200.593 35.8545 198.864 36.1738 196.898 36.1738H196.735Z" fill="#58A700"/>
<path d="M182.92 27.2639C182.92 28.8663 182.526 30.3423 181.737 31.6917C180.948 33.0411 179.917 34.1195 178.643 34.9267C177.381 35.734 176.004 36.1677 174.511 36.228H171.672C170.689 36.1557 169.743 35.9328 168.833 35.5593C168.347 35.3545 167.874 35.1075 167.413 34.8183C166.891 34.4689 166.224 33.9147 165.411 33.1556L167.194 31.6375L167.285 31.5471L169.197 29.9206C170.143 30.8242 171.035 31.2941 171.872 31.3303H173.892C174.548 31.3303 175.142 31.1917 175.676 30.9146C176.319 30.5893 176.835 30.1796 177.223 29.6856C177.624 29.1796 177.854 28.6736 177.915 28.1675H171.708C169.257 28.035 167.201 27.1374 165.538 25.4747C163.888 23.7999 163.02 21.7396 162.935 19.2938V10.2212H167.868V19.2757C167.88 19.8902 168.02 20.4504 168.286 20.9565C168.553 21.5348 168.942 22.0167 169.451 22.4023C170.155 22.9806 170.998 23.2698 171.981 23.2698H177.988V10.2212H182.92V27.2639Z" fill="#FDD231"/>
<path d="M157.675 20.1974C158.646 20.8962 159.459 21.8722 160.114 23.1252C160.782 24.3783 161.115 25.7518 161.115 27.2458C161.115 28.8483 160.715 30.3242 159.914 31.6736C159.113 33.011 158.045 34.0894 156.711 34.9087C155.388 35.7159 153.908 36.1436 152.27 36.1918L139.474 36.2099V10.2212H152.324C153.501 10.2694 154.563 10.5887 155.509 11.1791C156.468 11.7695 157.239 12.5526 157.821 13.5285C158.403 14.4924 158.695 15.5467 158.695 16.6913C158.695 17.4021 158.591 18.0769 158.385 18.7154C158.179 19.342 157.942 19.836 157.675 20.1974ZM144.407 15.119V18.2817H152.179C152.64 18.2817 153.016 18.1371 153.307 17.8479C153.61 17.5467 153.762 17.1612 153.762 16.6913C153.762 16.2334 153.61 15.8599 153.307 15.5708C153.016 15.2696 152.64 15.119 152.179 15.119H144.407ZM144.407 31.3122H152.088C153.24 31.3122 154.211 30.9206 155 30.1374C155.789 29.3543 156.183 28.3904 156.183 27.2458C156.183 26.1012 155.801 25.1494 155.036 24.3903C154.284 23.6312 153.325 23.2276 152.16 23.1794H144.407V31.3122Z" fill="#9069CD"/>
<path d="M129.045 18.4263C130.598 18.4263 132.024 18.8359 133.322 19.6552C134.633 20.4625 135.676 21.5408 136.453 22.8903C137.23 24.2276 137.618 25.6976 137.618 27.3C137.618 28.9145 137.23 30.3965 136.453 31.7459C135.676 33.0833 134.633 34.1556 133.322 34.9629C132.024 35.7701 130.598 36.1738 129.045 36.1738C127.492 36.1738 126.066 35.7701 124.768 34.9629C123.47 34.1556 122.426 33.0833 121.637 31.7459C120.861 30.3965 120.473 28.9145 120.473 27.3C120.473 25.6976 120.861 24.2276 121.637 22.8903C122.426 21.5408 123.47 20.4625 124.768 19.6552C126.066 18.8359 127.492 18.4263 129.045 18.4263ZM129.045 31.6917C130.186 31.6917 131.144 31.27 131.921 30.4266C132.71 29.5832 133.104 28.541 133.104 27.3C133.104 26.059 132.71 25.0168 131.921 24.1734C131.144 23.33 130.186 22.9083 129.045 22.9083C127.905 22.9083 126.94 23.33 126.151 24.1734C125.375 25.0168 124.986 26.059 124.986 27.3C124.986 28.541 125.375 29.5832 126.151 30.4266C126.94 31.27 127.905 31.6917 129.045 31.6917Z" fill="#1C1B1F"/>
<path d="M104.674 18.5709H111.19C112.695 18.5709 114.078 18.9624 115.34 19.7456C116.602 20.5287 117.609 21.5709 118.361 22.8722C119.114 24.1734 119.49 25.5952 119.49 27.1374C119.49 28.6916 119.114 30.1194 118.361 31.4206C117.609 32.7219 116.602 33.7641 115.34 34.5472C114.078 35.3304 112.695 35.7219 111.19 35.7219H108.223V42.1559H103.655V18.5889H104.674V18.5709ZM108.223 31.1676H111.19C112.246 31.1676 113.132 30.7881 113.847 30.029C114.563 29.2579 114.921 28.294 114.921 27.1374C114.921 25.9928 114.563 25.0409 113.847 24.2819C113.132 23.5108 112.246 23.1252 111.19 23.1252H108.223V31.1676Z" fill="#1C1B1F"/>
<path d="M102.454 21.4264C101.531 21.6553 100.87 21.824 100.47 21.9324C99.4383 22.2216 98.4252 22.4686 97.4302 22.6734C96.4473 22.8662 95.2521 22.9927 93.8446 23.0529L93.0437 23.0891V36.1738H88.6209V18.607H91.8607C92.4795 18.607 93.0741 18.5889 93.6444 18.5528C94.7971 18.5046 95.78 18.4022 96.5929 18.2455C97.4059 18.0769 98.3038 17.86 99.2867 17.5949C99.6992 17.4624 100.373 17.2877 101.307 17.0708L102.454 21.4264Z" fill="#1C1B1F"/>
<path d="M85.7816 10.2212V36.1918H80.8491V20.4685L81.1403 20.1251C80.1453 21.2215 78.9562 22.4143 77.5729 23.7035L77.4273 23.8662C76.5294 24.7096 75.6376 25.5771 74.7518 26.4687C73.2108 27.9868 72.0277 29.3965 71.2026 30.6977C70.2804 32.2881 69.5342 34.1195 68.9639 36.1918H64.1406V10.2212H69.0731V25.5108C69.5099 24.9807 70.4988 23.9385 72.0398 22.3842C72.7921 21.6493 73.5323 20.9384 74.2604 20.2516C74.4788 20.0468 74.6911 19.842 74.8974 19.6372C76.0137 18.5769 76.948 17.6371 77.7003 16.8178C78.6468 15.7214 79.3566 14.625 79.8298 13.5285C80.3152 12.4201 80.6853 11.3176 80.9401 10.2212H85.7816Z" fill="#1C1B1F"/>
<path d="M44.2097 2.972C43.7669 2.20452 44.9458 1.10908 46.9575 0.5L44.2097 2.972Z" fill="#9069CD"/>
<path d="M41.9204 4.55375C41.9204 4.44492 41.9063 4.32255 41.8923 4.20022C41.8612 3.93004 41.8301 3.66001 41.9508 3.53639C42.2059 3.27609 42.5465 3.09789 42.8864 2.92008C43.0301 2.84492 43.1737 2.76979 43.3106 2.68859C43.3399 2.77607 43.3853 2.87639 43.4307 2.97675C43.5301 3.19633 43.6295 3.41606 43.5601 3.50181C43.2982 3.8266 42.967 4.10067 42.6382 4.37285C42.5255 4.46618 42.413 4.55929 42.3036 4.65414L41.9204 4.55375Z" fill="#9069CD"/>
<path fill-rule="evenodd" clip-rule="evenodd" d="M31.4207 3.58003L29.9639 5.49823C27.7719 4.78875 25.4964 4.73502 23.2104 4.68104C21.6116 4.64329 20.0078 4.60542 18.4238 4.34299L20.0264 5.35754C16.8059 5.43639 14.0935 4.71983 11.6404 3.02582L11.4407 3.33308L15.2348 6.62022C13.1508 7.07822 11.2678 6.77211 6.58008 5.17898C7.88372 7.28924 9.69549 8.40931 12.3039 8.68642C8.63833 10.8883 6.53102 14.0224 4.59426 17.3559C3.93073 18.4978 3.02555 19.5059 2.12535 20.5084C1.87659 20.7855 1.6282 21.0621 1.3854 21.341C1.13457 21.6297 0.79742 21.844 0.459882 22.0586C0.303876 22.1578 0.147686 22.2571 0 22.3637L0.116813 22.6791L4.65851 21.8014C4.05458 24.8473 4.37465 27.8666 5.29163 30.8697C6.20862 33.8727 8.35564 37.8846 9.51092 38.8701C9.08369 36.8396 8.64289 34.7262 8.20134 32.6093L8.12435 32.2402L8.41522 32.1671C8.49432 32.2897 8.5616 32.4193 8.61614 32.5544C10.0611 37.1993 13.1438 40.4482 17.4741 42.526C27.548 47.3645 39.0448 42.6222 45.042 35.714L43.3365 36.0932C45.6366 32.3098 47.057 28.473 47.2194 24.2212C47.3864 19.8685 45.8714 16.0642 43.5818 12.4698C44.9679 15.6949 45.5683 19.199 45.334 22.6976C44.8504 30.1218 38.9034 36.528 31.5162 37.51C29.0281 37.8405 26.5364 37.2387 25.2994 35.9714H27.485C23.6453 35.4972 19.6456 29.0516 21.1163 24.6456C21.8931 25.9848 22.6723 27.2602 24.3357 27.7762C24.2988 27.6906 24.2693 27.6228 24.2447 27.5662C24.2022 27.4687 24.1742 27.4043 24.1476 27.3391C23.1512 24.867 23.2902 21.2286 26.1521 19.4893C26.3259 19.3836 26.4196 19.1481 26.5117 18.9163C26.5539 18.8101 26.5959 18.7046 26.6451 18.6128C26.6969 18.7772 26.7459 18.951 26.7962 19.1297C26.9023 19.5066 27.0146 19.9052 27.1731 20.2836C28.0632 22.4263 29.3271 23.9684 31.9355 24.3302C33.7894 24.5876 35.5906 25.4317 36.5088 27.3901C36.6968 27.7959 37.2751 28.2145 37.7108 28.2597C38.7385 28.3449 39.7725 28.3192 40.7947 28.1832C41.2 28.1356 41.6672 27.8399 41.9324 27.5165C42.6146 26.6816 42.499 23.0443 41.8927 22.1364C40.4286 19.9566 38.9957 17.7594 37.594 15.5448C37.3685 15.183 37.1454 14.6404 37.2517 14.2786C37.518 13.3765 37.1711 12.8385 36.5029 12.333C36.286 12.1684 36.1024 11.9613 35.8927 11.7247C35.7907 11.6096 35.6826 11.4877 35.5614 11.3602L37.3136 9.84591L37.1079 9.35683C38.0611 8.6805 37.9236 8.38357 37.0833 6.80156C36.3161 7.13122 35.8289 7.47371 35.6129 7.85275L33.8513 8.97166C34.0148 6.90546 34.1585 5.08622 34.3022 3.26699C32.4425 5.77612 31.1167 7.32867 30.7978 6.94256L31.2884 6.31064L31.0052 6.09405C31.6875 5.39233 31.8106 4.48708 31.4207 3.58003ZM34.5136 14.6044L34.2671 14.7853C34.4838 15.17 34.6996 15.5557 34.9639 16.0279L35.0848 16.2439L36.1361 15.51L34.5136 14.6044Z" fill="#9069CD"/>
<path d="M38.2601 8.13241C37.2037 6.61753 37.297 6.33753 39.0951 5.42949C40.1369 6.73243 40.0537 7.01688 38.2601 8.13241Z" fill="#9069CD"/>
<path d="M41.2437 4.03182C42.0157 5.13508 42.0158 5.13508 40.3502 6.34988C39.205 5.33141 39.3275 4.99229 41.2437 4.03182Z" fill="#9069CD"/>
</svg>
