<svg width="138" height="30" viewBox="0 0 138 30" fill="none" xmlns="http://www.w3.org/2000/svg">
<path d="M130.6 24.0121C128.514 23.9637 126.524 23.5046 124.631 22.6345C124.002 22.3445 123.293 21.9256 122.504 21.3778L124.353 18.7315C124.997 19.1665 125.553 19.4928 126.02 19.7103C126.681 20.0244 127.426 20.2822 128.256 20.4836C129.094 20.685 129.915 20.7857 130.721 20.7857C131.43 20.7857 132.058 20.6971 132.606 20.5199C133.162 20.3346 133.593 20.0365 133.899 19.6257C134.092 19.3357 134.189 19.0859 134.189 18.8765C134.189 18.7556 134.169 18.6549 134.128 18.5744C133.814 17.8252 133.093 17.2572 131.965 16.8706C131.41 16.7014 130.85 16.6128 130.286 16.6047H129.935C129.653 16.6047 129.375 16.6007 129.102 16.5926C128.916 16.5926 128.622 16.5846 128.219 16.5685L128.256 13.3542H129.186C129.557 13.3542 129.927 13.3582 130.298 13.3663C130.91 13.3663 131.502 13.2495 132.074 13.0158C132.743 12.7419 133.194 12.4439 133.428 12.1216C133.573 11.9605 133.645 11.7793 133.645 11.5779C133.645 11.5376 133.641 11.4973 133.633 11.457C133.569 11.1106 133.359 10.8206 133.005 10.587C132.143 10.0795 131.164 9.82572 130.068 9.82572C129.947 9.82572 129.831 9.82975 129.718 9.83781C128.461 9.87809 126.894 10.3816 125.017 11.3483L123.567 8.47234C125.831 7.30424 127.813 6.68797 129.512 6.62352C129.714 6.60741 129.915 6.59936 130.117 6.59936C131.784 6.59936 133.323 7.01826 134.733 7.85607C135.868 8.62138 136.565 9.63641 136.823 10.9012C136.855 11.1267 136.871 11.3483 136.871 11.5658C136.871 12.46 136.573 13.3139 135.977 14.1276C135.615 14.5545 135.361 14.8204 135.216 14.9251C135.595 15.1748 135.965 15.5333 136.328 16.0005C136.698 16.4678 136.984 16.9753 137.186 17.5231C137.339 17.9823 137.415 18.4334 137.415 18.8765C137.415 19.7626 137.121 20.6367 136.533 21.4987C135.945 22.3204 135.152 22.9447 134.153 23.3716C133.162 23.7986 132.014 24.0121 130.709 24.0121H130.6Z" fill="#58A700"/>
<path d="M121.428 18.0548C121.428 19.1262 121.167 20.1131 120.643 21.0153C120.119 21.9176 119.435 22.6386 118.589 23.1783C117.751 23.718 116.837 24.0081 115.846 24.0483H113.961C113.308 24 112.68 23.851 112.076 23.6012C111.753 23.4643 111.439 23.2991 111.133 23.1058C110.787 22.8722 110.344 22.5016 109.804 21.9941L110.988 20.9791L111.048 20.9186L112.317 19.8311C112.946 20.4353 113.538 20.7495 114.094 20.7736H115.435C115.87 20.7736 116.265 20.681 116.619 20.4957C117.046 20.2782 117.388 20.0043 117.646 19.674C117.912 19.3357 118.065 18.9973 118.105 18.659H113.985C112.357 18.5704 110.992 17.9702 109.888 16.8585C108.793 15.7387 108.217 14.3612 108.16 12.7258V6.65977H111.435V12.7137C111.443 13.1246 111.536 13.4992 111.713 13.8375C111.89 14.2242 112.148 14.5465 112.486 14.8042C112.954 15.1909 113.513 15.3843 114.166 15.3843H118.154V6.65977H121.428V18.0548Z" fill="#FDD231"/>
<path d="M104.668 13.33C105.313 13.7973 105.852 14.4498 106.287 15.2876C106.73 16.1254 106.952 17.0438 106.952 18.0427C106.952 19.1141 106.686 20.101 106.154 21.0032C105.623 21.8974 104.914 22.6184 104.028 23.1662C103.15 23.706 102.167 23.9919 101.079 24.0242L92.5844 24.0363V6.65977H101.116C101.897 6.692 102.602 6.90548 103.23 7.30021C103.867 7.69495 104.378 8.21858 104.765 8.87111C105.152 9.51557 105.345 10.2205 105.345 10.9858C105.345 11.4611 105.276 11.9122 105.139 12.3392C105.002 12.7581 104.845 13.0883 104.668 13.33ZM95.8591 9.93448V12.0491H101.019C101.325 12.0491 101.575 11.9525 101.768 11.7591C101.969 11.5577 102.07 11.2999 102.07 10.9858C102.07 10.6796 101.969 10.4299 101.768 10.2366C101.575 10.0352 101.325 9.93448 101.019 9.93448H95.8591ZM95.8591 20.7615H100.958C101.724 20.7615 102.368 20.4997 102.892 19.9761C103.415 19.4525 103.677 18.808 103.677 18.0427C103.677 17.2774 103.424 16.641 102.916 16.1335C102.417 15.6259 101.78 15.3561 101.007 15.3238H95.8591V20.7615Z" fill="#9069CD"/>
<path d="M85.6604 12.1458C86.6915 12.1458 87.6381 12.4197 88.5001 12.9675C89.3701 13.5073 90.0629 14.2282 90.5785 15.1305C91.0941 16.0247 91.3518 17.0075 91.3518 18.0789C91.3518 19.1584 91.0941 20.1493 90.5785 21.0516C90.0629 21.9458 89.3701 22.6627 88.5001 23.2025C87.6381 23.7422 86.6915 24.0121 85.6604 24.0121C84.6292 24.0121 83.6827 23.7422 82.8207 23.2025C81.9587 22.6627 81.2659 21.9458 80.7423 21.0516C80.2267 20.1493 79.9689 19.1584 79.9689 18.0789C79.9689 17.0075 80.2267 16.0247 80.7423 15.1305C81.2659 14.2282 81.9587 13.5073 82.8207 12.9675C83.6827 12.4197 84.6292 12.1458 85.6604 12.1458ZM85.6604 21.0153C86.4176 21.0153 87.054 20.7334 87.5696 20.1694C88.0932 19.6055 88.3551 18.9087 88.3551 18.0789C88.3551 17.2492 88.0932 16.5524 87.5696 15.9885C87.054 15.4245 86.4176 15.1426 85.6604 15.1426C84.9031 15.1426 84.2627 15.4245 83.7391 15.9885C83.2235 16.5524 82.9657 17.2492 82.9657 18.0789C82.9657 18.9087 83.2235 19.6055 83.7391 20.1694C84.2627 20.7334 84.9031 21.0153 85.6604 21.0153Z" fill="#1C1B1F"/>
<path d="M69.4802 12.2425H73.8062C74.8051 12.2425 75.7235 12.5043 76.5613 13.0279C77.3991 13.5516 78.0677 14.2484 78.5672 15.1184C79.0667 15.9885 79.3164 16.939 79.3164 17.9702C79.3164 19.0094 79.0667 19.964 78.5672 20.834C78.0677 21.7041 77.3991 22.4009 76.5613 22.9245C75.7235 23.4482 74.8051 23.71 73.8062 23.71H71.8365V28.0118H68.8035V12.2546H69.4802V12.2425ZM71.8365 20.6649H73.8062C74.507 20.6649 75.0951 20.4111 75.5704 19.9036C76.0457 19.388 76.2834 18.7436 76.2834 17.9702C76.2834 17.2049 76.0457 16.5685 75.5704 16.061C75.0951 15.5454 74.507 15.2876 73.8062 15.2876H71.8365V20.6649Z" fill="#1C1B1F"/>
<path d="M68.006 14.1517C67.3937 14.3048 66.9547 14.4176 66.6889 14.4901C66.0041 14.6834 65.3314 14.8485 64.6709 14.9855C64.0183 15.1144 63.2248 15.199 62.2904 15.2393L61.7587 15.2634V24.0121H58.8223V12.2666H60.9732C61.3841 12.2666 61.7788 12.2546 62.1574 12.2304C62.9227 12.1982 63.5753 12.1297 64.115 12.025C64.6547 11.9122 65.2509 11.7672 65.9034 11.59C66.1773 11.5013 66.6244 11.3845 67.2447 11.2395L68.006 14.1517Z" fill="#1C1B1F"/>
<path d="M56.9372 6.65977V24.0242H53.6625V13.5113L53.8559 13.2817C53.1953 14.0148 52.4058 14.8123 51.4874 15.6743L51.3908 15.783C50.7946 16.3469 50.2025 16.927 49.6145 17.5231C48.5914 18.5381 47.8059 19.4807 47.2581 20.3507C46.6459 21.4141 46.1504 22.6386 45.7718 24.0242H42.5696V6.65977H45.8443V16.8827C46.1343 16.5282 46.7909 15.8314 47.814 14.7922C48.3134 14.3008 48.8048 13.8255 49.2882 13.3663C49.4332 13.2293 49.5742 13.0924 49.7111 12.9554C50.4523 12.2465 51.0726 11.6182 51.572 11.0704C52.2004 10.3373 52.6717 9.60419 52.9858 8.87111C53.3081 8.12997 53.5538 7.39286 53.7229 6.65977H56.9372Z" fill="#1C1B1F"/>
<path d="M20.2156 3.46101L20.7661 3.88507L20.4405 4.30758C20.6521 4.56574 21.532 3.52768 22.7662 1.85004C22.6709 3.06641 22.5755 4.28278 22.467 5.66427L24.088 4.62699C24.3082 5.15571 24.5198 5.66195 24.7648 6.24881L23.6019 7.26129C23.8477 7.52178 24.0128 7.74815 24.2268 7.91173C24.6702 8.24974 24.9005 8.60945 24.7237 9.2126C24.6532 9.45448 24.8013 9.81729 24.9509 10.0592C25.8812 11.5399 26.8322 13.009 27.8038 14.4665C28.2062 15.0735 28.2829 17.5055 27.8302 18.0636C27.6542 18.2799 27.3441 18.4776 27.0751 18.5094C26.3967 18.6004 25.7105 18.6175 25.0284 18.5606C24.7392 18.5303 24.3555 18.2505 24.2307 17.9791C23.6213 16.6697 22.4259 16.1054 21.1956 15.9332C19.4644 15.6914 18.6256 14.6603 18.0349 13.2276C17.8798 12.8547 17.7914 12.4524 17.6844 12.1105C17.5806 12.3058 17.5255 12.5935 17.3573 12.6966C15.4579 13.8595 15.3657 16.2922 16.027 17.945C16.0549 18.014 16.0851 18.0815 16.1518 18.2373C15.0478 17.8923 14.5307 17.0395 14.0152 16.1441C13.0391 19.0901 15.6936 23.3997 18.2419 23.7168H16.7914C17.6124 24.5641 19.266 24.9665 20.9172 24.7455C25.8199 24.0889 29.7667 19.8056 30.0877 14.8417C30.2432 12.5025 29.8447 10.1596 28.9248 8.00321C30.4443 10.4065 31.4498 12.9501 31.3389 15.8604C31.2312 18.7032 30.2885 21.2685 28.762 23.7982L29.8939 23.5447C25.9137 28.1636 18.2837 31.3344 11.598 28.0993C8.7241 26.71 6.67821 24.5378 5.71923 21.4321C5.68303 21.3418 5.63838 21.2551 5.58588 21.1732L5.39285 21.222C5.70295 22.7198 6.01305 24.2184 6.31307 25.6549C5.54635 24.9959 4.12144 22.3136 3.51286 20.3057C2.90429 18.2978 2.69187 16.279 3.09268 14.2424L0.0785016 14.8293L0.000976562 14.6184C0.311077 14.3928 0.676995 14.2168 0.920424 13.9347C1.66466 13.0733 2.48798 12.2446 3.05004 11.2701C4.3354 9.04127 5.73396 6.94576 8.16669 5.47356C6.43556 5.28828 5.23314 4.53938 4.36796 3.12843C7.47905 4.19362 8.72875 4.39829 10.1118 4.09206L7.59378 1.89423L7.72635 1.68879C9.35438 2.82143 11.1545 3.30053 13.2919 3.24782L12.2282 2.56947C14.899 3.01524 17.655 2.49195 20.2242 3.46024L20.2156 3.46101ZM22.9065 9.43044L22.743 9.55138C22.9081 9.84675 23.0724 10.1429 23.2856 10.5266L23.9834 10.0359L22.9065 9.43044Z" fill="#9069CD"/>
<path d="M24.6121 4.21335C25.2834 5.48653 25.2789 5.51487 24.1497 6.2391C23.2308 5.35302 23.3561 4.75708 24.6121 4.21335Z" fill="#9069CD"/>
<path d="M25.3931 5.10316C24.692 4.09028 24.7539 3.90307 25.9473 3.29594C26.6387 4.16711 26.5835 4.3573 25.3931 5.10316Z" fill="#9069CD"/>
<path d="M19.4516 3.91948L20.8538 2.05931C21.1424 2.73581 21.0075 3.41081 20.4063 3.89711C20.2101 4.05672 19.7738 3.92098 19.4464 3.91948H19.4516Z" fill="#9069CD"/>
<path d="M27.3731 2.36138C27.8855 3.09904 27.8855 3.09904 26.7802 3.91128C26.0201 3.23031 26.1014 3.00357 27.3731 2.36138Z" fill="#9069CD"/>
<path d="M27.8222 2.71045C27.8222 2.47699 27.726 2.15031 27.8424 2.03023C28.0833 1.7826 28.439 1.64611 28.7448 1.46337C28.8067 1.64984 28.9775 1.92357 28.9104 2.0071C28.677 2.29873 28.3607 2.5292 28.0766 2.77758L27.8222 2.71045Z" fill="#9069CD"/>
<path d="M29.3416 1.65282C29.0477 1.13967 29.8301 0.407239 31.1652 0L29.3416 1.65282Z" fill="#9069CD"/>
</svg>
