<svg width="300" height="64" viewBox="0 0 300 64" fill="none" xmlns="http://www.w3.org/2000/svg">
<path d="M285.121 52.2372C280.566 52.1321 276.222 51.1331 272.089 49.2404C270.717 48.6095 269.169 47.6982 267.446 46.5065L271.482 40.7495C272.889 41.6958 274.103 42.4056 275.123 42.8788C276.565 43.5623 278.192 44.1231 280.003 44.5612C281.832 44.9993 283.626 45.2184 285.385 45.2184C286.933 45.2184 288.304 45.0256 289.5 44.6401C290.714 44.237 291.655 43.5886 292.323 42.6948C292.745 42.0639 292.956 41.5206 292.956 41.0649C292.956 40.802 292.912 40.583 292.824 40.4077C292.138 38.7779 290.564 37.5424 288.102 36.7012C286.889 36.3331 285.666 36.1404 284.435 36.1228H283.67C283.055 36.1228 282.448 36.1141 281.85 36.0965C281.445 36.0965 280.803 36.079 279.924 36.044L280.003 29.0514H282.035C282.844 29.0514 283.653 29.0602 284.462 29.0777C285.798 29.0777 287.091 28.8236 288.34 28.3154C289.799 27.7195 290.784 27.0711 291.294 26.3701C291.611 26.0196 291.769 25.6253 291.769 25.1871C291.769 25.0995 291.76 25.0119 291.743 24.9243C291.602 24.1707 291.145 23.5398 290.371 23.0315C288.489 21.9275 286.352 21.3754 283.96 21.3754C283.697 21.3754 283.441 21.3842 283.195 21.4017C280.452 21.4893 277.031 22.5847 272.933 24.6877L269.767 18.4312C274.709 15.8901 279.036 14.5494 282.747 14.4092C283.186 14.3741 283.626 14.3566 284.066 14.3566C287.706 14.3566 291.066 15.2679 294.143 17.0905C296.623 18.7554 298.145 20.9636 298.707 23.715C298.778 24.2057 298.813 24.6877 298.813 25.1609C298.813 27.1061 298.162 28.9638 296.861 30.7339C296.069 31.6627 295.515 32.241 295.199 32.4688C296.025 33.0121 296.834 33.792 297.626 34.8085C298.435 35.8249 299.059 36.929 299.499 38.1207C299.833 39.1196 300 40.101 300 41.0649C300 42.9927 299.358 44.8942 298.074 46.7694C296.79 48.5569 295.058 49.9151 292.877 50.844C290.714 51.7728 288.208 52.2372 285.359 52.2372H285.121Z" fill="#58A700"/>
<path d="M265.098 39.2774C265.098 41.6082 264.526 43.755 263.383 45.7179C262.24 47.6807 260.745 49.2492 258.898 50.4234C257.069 51.5975 255.073 52.2285 252.91 52.3161H248.794C247.37 52.2109 245.998 51.8867 244.679 51.3434C243.975 51.0455 243.289 50.6862 242.621 50.2656C241.865 49.7574 240.898 48.9512 239.719 47.8472L242.305 45.639L242.436 45.5076L245.207 43.1417C246.578 44.456 247.871 45.1395 249.085 45.1921H252.013C252.963 45.1921 253.824 44.9906 254.598 44.5875C255.53 44.1143 256.278 43.5184 256.841 42.7999C257.421 42.0639 257.755 41.3278 257.843 40.5917H248.847C245.294 40.399 242.313 39.0933 239.904 36.6749C237.512 34.2389 236.255 31.2421 236.131 27.6845V14.488H243.281V27.6582C243.298 28.552 243.501 29.3669 243.887 30.1029C244.274 30.9442 244.837 31.6452 245.576 32.206C246.596 33.0472 247.818 33.4678 249.243 33.4678H257.949V14.488H265.098V39.2774Z" fill="#FDD231"/>
<path d="M228.507 28.9989C229.914 30.0153 231.093 31.4349 232.042 33.2575C233.01 35.0801 233.493 37.078 233.493 39.2511C233.493 41.5819 232.913 43.7287 231.752 45.6916C230.591 47.6369 229.044 49.2054 227.109 50.3971C225.192 51.5713 223.046 52.1934 220.672 52.2635L202.126 52.2898V14.488H220.751C222.457 14.5581 223.996 15.0226 225.368 15.8813C226.757 16.74 227.874 17.8792 228.718 19.2987C229.563 20.7007 229.985 22.2342 229.985 23.899C229.985 24.933 229.835 25.9144 229.536 26.8433C229.237 27.7546 228.894 28.4731 228.507 28.9989ZM209.275 21.612V26.2124H220.54C221.209 26.2124 221.754 26.0021 222.176 25.5815C222.616 25.1433 222.835 24.5825 222.835 23.899C222.835 23.2331 222.616 22.6898 222.176 22.2692C221.754 21.8311 221.209 21.612 220.54 21.612H209.275ZM209.275 45.1658H220.408C222.079 45.1658 223.486 44.5962 224.629 43.4571C225.772 42.318 226.344 40.916 226.344 39.2511C226.344 37.5862 225.79 36.2017 224.682 35.0976C223.592 33.9935 222.202 33.4064 220.514 33.3363H209.275V45.1658Z" fill="#9069CD"/>
<path d="M187.01 26.4227C189.261 26.4227 191.328 27.0185 193.209 28.2102C195.109 29.3844 196.621 30.9529 197.747 32.9157C198.873 34.861 199.435 36.9991 199.435 39.3299C199.435 41.6783 198.873 43.8339 197.747 45.7967C196.621 47.742 195.109 49.3017 193.209 50.4759C191.328 51.6501 189.261 52.2372 187.01 52.2372C184.759 52.2372 182.692 51.6501 180.81 50.4759C178.928 49.3017 177.416 47.742 176.273 45.7967C175.147 43.8339 174.584 41.6783 174.584 39.3299C174.584 36.9991 175.147 34.861 176.273 32.9157C177.416 30.9529 178.928 29.3844 180.81 28.2102C182.692 27.0185 184.759 26.4227 187.01 26.4227ZM187.01 45.7179C188.663 45.7179 190.053 45.1045 191.178 43.8777C192.321 42.651 192.893 41.135 192.893 39.3299C192.893 37.5248 192.321 36.0089 191.178 34.7822C190.053 33.5554 188.663 32.942 187.01 32.942C185.357 32.942 183.958 33.5554 182.815 34.7822C181.69 36.0089 181.127 37.5248 181.127 39.3299C181.127 41.135 181.69 42.651 182.815 43.8777C183.958 45.1045 185.357 45.7179 187.01 45.7179Z" fill="#1C1B1F"/>
<path d="M151.686 26.633H161.13C163.311 26.633 165.316 27.2025 167.145 28.3417C168.974 29.4808 170.434 30.9967 171.524 32.8894C172.615 34.7822 173.16 36.8501 173.16 39.0933C173.16 41.3541 172.615 43.4308 171.524 45.3235C170.434 47.2163 168.974 48.7322 167.145 49.8713C165.316 51.0104 163.311 51.58 161.13 51.58H156.83V60.9384H150.208V26.6593H151.686V26.633ZM156.83 44.9555H161.13C162.66 44.9555 163.944 44.4035 164.982 43.2994C166.019 42.1778 166.538 40.7758 166.538 39.0933C166.538 37.4285 166.019 36.044 164.982 34.9399C163.944 33.8183 162.66 33.2575 161.13 33.2575H156.83V44.9555Z" fill="#1C1B1F"/>
<path d="M148.467 30.7864C147.131 31.1194 146.172 31.3648 145.592 31.5225C144.097 31.9431 142.628 32.3024 141.186 32.6003C139.761 32.8807 138.029 33.0647 135.989 33.1523L134.828 33.2049V52.2372H128.418V26.6855H133.113C134.01 26.6855 134.872 26.6593 135.699 26.6067C137.37 26.5366 138.794 26.3876 139.972 26.1598C141.151 25.9144 142.452 25.599 143.877 25.2134C144.475 25.0207 145.451 24.7665 146.805 24.4511L148.467 30.7864Z" fill="#1C1B1F"/>
<path d="M124.302 14.488V52.2635H117.153V29.3932L117.575 28.8937C116.133 30.4885 114.409 32.2235 112.404 34.0987L112.193 34.3353C110.892 35.562 109.599 36.8238 108.315 38.1207C106.082 40.3289 104.367 42.3793 103.171 44.272C101.834 46.5854 100.753 49.2492 99.926 52.2635H92.935V14.488H100.084V36.7275C100.717 35.9563 102.151 34.4404 104.384 32.1797C105.475 31.1106 106.548 30.0767 107.603 29.0777C107.919 28.7798 108.227 28.4819 108.526 28.1839C110.144 26.6417 111.498 25.2748 112.589 24.0831C113.961 22.4883 114.99 20.8935 115.675 19.2987C116.379 17.6864 116.915 16.0828 117.285 14.488H124.302Z" fill="#1C1B1F"/>
<path d="M44.1323 7.52927L45.3339 8.4518L44.6231 9.37096C45.0851 9.93257 47.0061 7.67431 49.7006 4.02468C49.4924 6.67083 49.2843 9.31699 49.0473 12.3224L52.5864 10.0658C53.067 11.216 53.5291 12.3173 54.0639 13.594L51.5251 15.7966C52.0617 16.3633 52.4222 16.8558 52.8893 17.2116C53.8574 17.9469 54.3601 18.7295 53.9742 20.0416C53.8202 20.5678 54.1435 21.3571 54.4701 21.8833C56.5011 25.1045 58.5773 28.3005 60.6986 31.4712C61.577 32.7917 61.7445 38.0823 60.7561 39.2966C60.3719 39.7672 59.6949 40.1972 59.1076 40.2664C57.6266 40.4643 56.1284 40.5016 54.6394 40.3777C54.0081 40.3119 53.1703 39.7031 52.8978 39.1128C51.5675 36.2643 48.9576 35.0365 46.2716 34.6621C42.4922 34.1359 40.6609 31.8928 39.3712 28.7761C39.0327 27.9649 38.8398 27.0896 38.6062 26.3458C38.3794 26.7708 38.2592 27.3965 37.892 27.6208C33.7453 30.1506 33.5439 35.4429 34.9876 39.0386C35.0485 39.1887 35.1145 39.3354 35.2601 39.6744C32.85 38.9239 31.7211 37.0687 30.5955 35.1208C28.4647 41.5296 34.2598 50.905 39.8231 51.5948H36.6564C38.4488 53.4381 42.0589 54.3134 45.664 53.8328C56.3674 52.4043 64.984 43.0863 65.6847 32.2874C66.0241 27.1986 65.1543 22.1017 63.1459 17.4106C66.4633 22.6388 68.6585 28.1723 68.4164 34.5035C68.1812 40.688 66.1231 46.2687 62.7905 51.7719L65.2616 51.2204C56.5722 61.2687 39.9145 68.1665 25.3183 61.1287C19.0441 58.1064 14.5776 53.3808 12.484 46.6246C12.4049 46.4281 12.3075 46.2395 12.1929 46.0613L11.7714 46.1675C12.4484 49.4259 13.1254 52.6859 13.7804 55.8111C12.1065 54.3775 8.9957 48.5422 7.66708 44.1741C6.33846 39.806 5.87471 35.4143 6.74974 30.9838L0.169251 32.2605L0 31.8017C0.677005 31.3109 1.47587 30.9281 2.00732 30.3142C3.63213 28.4405 5.42958 26.6376 6.65665 24.5176C9.46284 19.6689 12.5161 15.1102 17.8272 11.9075C14.0478 11.5044 11.4228 9.87523 9.53392 6.80575C16.326 9.12304 19.0543 9.56828 22.0737 8.9021L16.5765 4.12081L16.8659 3.67388C20.4202 6.13789 24.3502 7.18016 29.0164 7.06548L26.6943 5.58977C32.525 6.55952 38.5419 5.42112 44.1509 7.52759L44.1323 7.52927ZM50.007 20.5155L49.6498 20.7786C50.0103 21.4212 50.3692 22.0654 50.8346 22.9003L52.3579 21.8327L50.007 20.5155Z" fill="#9069CD"/>
<path d="M53.7306 9.16596C55.1961 11.9357 55.1863 11.9974 52.721 13.5729C50.7149 11.6453 50.9885 10.3488 53.7306 9.16596Z" fill="#9069CD"/>
<path d="M55.4355 11.1017C53.9049 8.89823 54.0401 8.49096 56.6454 7.17018C58.1549 9.06536 58.0344 9.47911 55.4355 11.1017Z" fill="#9069CD"/>
<path d="M42.4642 8.52666L45.5255 4.47995C46.1556 5.95163 45.8609 7.42006 44.5485 8.47798C44.1202 8.82522 43.1676 8.52991 42.4528 8.52666H42.4642Z" fill="#9069CD"/>
<path d="M59.7583 5.13708C60.877 6.74182 60.877 6.74182 58.4638 8.50881C56.8045 7.02739 56.982 6.53413 59.7583 5.13708Z" fill="#9069CD"/>
<path d="M60.7388 5.89646C60.7388 5.38859 60.5287 4.6779 60.7827 4.41667C61.3087 3.87797 62.0854 3.58103 62.753 3.1835C62.8882 3.58915 63.2611 4.18464 63.1145 4.36636C62.6048 5.00079 61.9144 5.50217 61.294 6.04249L60.7388 5.89646Z" fill="#9069CD"/>
<path d="M64.0558 3.59564C63.4142 2.4793 65.1224 0.885929 68.0371 0L64.0558 3.59564Z" fill="#9069CD"/>
</svg>
