<svg width="24" height="24" viewBox="0 0 24 24" fill="none" xmlns="http://www.w3.org/2000/svg">
<path d="M21.7723 18.7033C21.406 19.5418 20.9725 20.3136 20.4702 21.0232C19.7855 21.9906 19.2249 22.6602 18.7928 23.032C18.1231 23.6424 17.4055 23.955 16.6371 23.9728C16.0855 23.9728 15.4202 23.8172 14.6459 23.5017C13.8689 23.1876 13.1549 23.032 12.5021 23.032C11.8174 23.032 11.0831 23.1876 10.2977 23.5017C9.51102 23.8172 8.87732 23.9816 8.3928 23.9979C7.65595 24.0291 6.92148 23.7076 6.18836 23.032C5.72044 22.6276 5.13517 21.9343 4.43404 20.9521C3.68179 19.9033 3.06333 18.687 2.57882 17.3004C2.05992 15.8026 1.7998 14.3523 1.7998 12.9482C1.7998 11.3398 2.15052 9.95259 2.85299 8.79011C3.40508 7.85636 4.13954 7.11979 5.05878 6.57906C5.97802 6.03834 6.97126 5.76279 8.0409 5.74516C8.62617 5.74516 9.39367 5.92456 10.3474 6.27715C11.2985 6.63091 11.9092 6.81032 12.177 6.81032C12.3771 6.81032 13.0555 6.60054 14.2056 6.18233C15.2932 5.79449 16.2111 5.63391 16.963 5.69716C19.0006 5.86012 20.5315 6.6561 21.5495 8.09013C19.7272 9.18432 18.8257 10.7169 18.8437 12.6829C18.8601 14.2142 19.4207 15.4886 20.5225 16.5004C21.0218 16.97 21.5794 17.333 22.1998 17.5907C22.0653 17.9774 21.9232 18.3477 21.7723 18.7033ZM17.0991 0.480137C17.0991 1.68041 16.6566 2.8011 15.7745 3.8384C14.7101 5.07155 13.4227 5.78412 12.0266 5.67168C12.0088 5.52769 11.9985 5.37614 11.9985 5.21688C11.9985 4.06462 12.5046 2.83147 13.4036 1.82321C13.8523 1.3127 14.4231 0.888228 15.1153 0.549615C15.8059 0.216055 16.4592 0.031589 17.0736 0C17.0916 0.160458 17.0991 0.320926 17.0991 0.480121V0.480137Z" fill="#1C1B1F"/>
</svg>
