<svg width="24" height="24" viewBox="0 0 24 24" fill="none" xmlns="http://www.w3.org/2000/svg">
<path d="M12 24C18.6274 24 24 18.6274 24 12C24 5.37259 18.6274 0 12 0C5.37258 0 0 5.37259 0 12C0 18.6274 5.37258 24 12 24Z" fill="#FC3F1D"/>
<path d="M16.3334 19.5175H13.7046V6.51529H12.5334C10.3868 6.51529 9.26233 7.58862 9.26233 9.19085C9.26233 11.0086 10.0379 11.8508 11.6423 12.9242L12.9646 13.8153L9.16456 19.5153H6.33789L9.75789 14.4264C7.79122 13.022 6.68456 11.6508 6.68456 9.33751C6.68456 6.4464 8.70011 4.47974 12.5157 4.47974H16.3157V19.5131H16.3334V19.5175Z" fill="white"/>
</svg>
