<svg width="101" height="100" viewBox="0 0 101 100" fill="none" xmlns="http://www.w3.org/2000/svg">
<mask id="mask0_2323_5312" style="mask-type:alpha" maskUnits="userSpaceOnUse" x="0" y="0" width="101" height="100">
<rect x="0.5" width="100" height="100" fill="#D9D9D9"/>
</mask>
<g mask="url(#mask0_2323_5312)">
<path d="M50.5278 91.6667C44.782 91.6667 39.3827 90.573 34.3299 88.3855C29.2764 86.198 24.8573 83.2119 21.0726 79.4272C17.2879 75.6424 14.3018 71.2233 12.1143 66.1699C9.92676 61.1171 8.83301 55.7178 8.83301 49.972C8.83301 44.2268 9.93023 38.8195 12.1247 33.7501C14.3191 28.6806 17.2972 24.2709 21.059 20.5209C24.8209 16.7709 29.2445 13.8022 34.3299 11.6147C39.4153 9.42716 44.8052 8.33341 50.4997 8.33341C53.6802 8.33341 56.7497 8.68064 59.708 9.37508C62.6663 10.0695 65.4997 11.0417 68.208 12.2917V19.2709C65.5691 17.7431 62.774 16.5799 59.8226 15.7813C56.8712 14.9827 53.7712 14.5834 50.5226 14.5834C40.7031 14.5834 32.3417 18.0209 25.4382 24.8959C18.5347 31.7709 15.083 40.122 15.083 49.949C15.083 59.7768 18.5375 68.1449 25.4465 75.0532C32.3549 81.9622 40.7229 85.4167 50.5507 85.4167C60.3778 85.4167 68.7288 81.9674 75.6038 75.0688C82.4788 68.1695 85.9163 59.8133 85.9163 50.0001C85.9163 47.5848 85.6906 45.2449 85.2393 42.9803C84.7879 40.7157 84.1108 38.5417 83.208 36.4584H89.8747C90.6386 38.6404 91.2115 40.8407 91.5934 43.0595C91.9754 45.2789 92.1663 47.5924 92.1663 50.0001C92.1663 55.6945 91.0726 61.0845 88.8851 66.1699C86.6976 71.2553 83.7288 75.6789 79.9788 79.4407C76.2288 83.2025 71.8191 86.1806 66.7497 88.3751C61.6802 90.5695 56.2729 91.6667 50.5278 91.6667ZM84.8747 29.1667V19.7917H75.4997V13.5417H84.8747V4.16675H91.1247V13.5417H100.5V19.7917H91.1247V29.1667H84.8747ZM65.708 44.4792C67.2705 44.4792 68.5986 43.9324 69.6924 42.8386C70.7861 41.7449 71.333 40.4167 71.333 38.8542C71.333 37.2917 70.7861 35.9636 69.6924 34.8699C68.5986 33.7761 67.2705 33.2292 65.708 33.2292C64.1455 33.2292 62.8174 33.7761 61.7236 34.8699C60.6299 35.9636 60.083 37.2917 60.083 38.8542C60.083 40.4167 60.6299 41.7449 61.7236 42.8386C62.8174 43.9324 64.1455 44.4792 65.708 44.4792ZM35.2913 44.4792C36.8538 44.4792 38.182 43.9324 39.2757 42.8386C40.3695 41.7449 40.9163 40.4167 40.9163 38.8542C40.9163 37.2917 40.3695 35.9636 39.2757 34.8699C38.182 33.7761 36.8538 33.2292 35.2913 33.2292C33.7288 33.2292 32.4007 33.7761 31.307 34.8699C30.2132 35.9636 29.6663 37.2917 29.6663 38.8542C29.6663 40.4167 30.2132 41.7449 31.307 42.8386C32.4007 43.9324 33.7288 44.4792 35.2913 44.4792ZM50.4997 72.8126C55.083 72.8126 59.3018 71.5799 63.1559 69.1147C67.0101 66.6494 69.8052 63.2987 71.5413 59.0626H29.458C31.2636 63.2987 34.0761 66.6494 37.8955 69.1147C41.715 71.5799 45.9163 72.8126 50.4997 72.8126Z" fill="#58A700"/>
</g>
</svg>
