<svg width="101" height="100" viewBox="0 0 101 100" fill="none" xmlns="http://www.w3.org/2000/svg">
<mask id="mask0_2323_5318" style="mask-type:alpha" maskUnits="userSpaceOnUse" x="0" y="0" width="101" height="100">
<rect x="0.5" width="100" height="100" fill="#D9D9D9"/>
</mask>
<g mask="url(#mask0_2323_5318)">
<path d="M71.3215 87.8126C70.9125 87.8126 70.5028 87.7664 70.0924 87.674C69.6813 87.581 69.2962 87.4188 68.9372 87.1876L54.8747 78.9584C54.1372 78.5334 53.5709 77.9626 53.1757 77.2459C52.7806 76.5292 52.583 75.7459 52.583 74.8959V58.5417C52.583 57.6917 52.7806 56.9084 53.1757 56.1917C53.5709 55.4751 54.1372 54.9042 54.8747 54.4792L68.9372 46.2501C69.299 46.0188 69.6861 45.8567 70.0986 45.7636C70.5118 45.6713 70.925 45.6251 71.3382 45.6251C71.7514 45.6251 72.1472 45.6831 72.5257 45.799C72.9049 45.9143 73.2712 46.0647 73.6247 46.2501L87.6872 54.4792C88.4323 54.9042 89.0181 55.4751 89.4445 56.1917C89.8702 56.9084 90.083 57.6917 90.083 58.5417V74.8959C90.083 75.7459 89.8702 76.5292 89.4445 77.2459C89.0181 77.9626 88.4323 78.5334 87.6872 78.9584L73.6247 87.1876C73.2663 87.373 72.8955 87.5233 72.5122 87.6386C72.1281 87.7546 71.7313 87.8126 71.3215 87.8126ZM42.1663 49.4792C37.583 49.4792 33.833 48.0209 30.9163 45.1042C27.9997 42.1876 26.5413 38.4376 26.5413 33.8542C26.5413 29.2709 27.9997 25.5209 30.9163 22.6042C33.833 19.6876 37.583 18.2292 42.1663 18.2292C46.7497 18.2292 50.4997 19.6876 53.4163 22.6042C56.333 25.5209 57.7913 29.2709 57.7913 33.8542C57.7913 38.4376 56.333 42.1876 53.4163 45.1042C50.4997 48.0209 46.7497 49.4792 42.1663 49.4792ZM8.83301 82.9167V73.1251C8.83301 70.6945 9.44065 68.507 10.6559 66.5626C11.8712 64.6181 13.6247 63.1251 15.9163 62.0834C20.9163 59.8612 25.5518 58.264 29.8226 57.2917C34.0934 56.3195 38.208 55.8334 42.1663 55.8334H44.5622C44.1455 56.8056 43.833 57.7605 43.6247 58.698C43.4163 59.6355 43.2427 60.764 43.1038 62.0834H42.1663C38.1386 62.0834 34.1976 62.5174 30.3434 63.3855C26.4893 64.2536 22.5136 65.6945 18.4163 67.7084C17.3052 68.264 16.4719 69.0452 15.9163 70.0522C15.3608 71.0591 15.083 72.0834 15.083 73.1251V76.6667H43.1038C43.4511 77.9167 43.8677 79.0452 44.3538 80.0522C44.84 81.0591 45.4302 82.014 46.1247 82.9167H8.83301ZM42.1663 43.2292C44.8747 43.2292 47.1143 42.3438 48.8851 40.573C50.6559 38.8022 51.5413 36.5626 51.5413 33.8542C51.5413 31.1459 50.6559 28.9063 48.8851 27.1355C47.1143 25.3647 44.8747 24.4792 42.1663 24.4792C39.458 24.4792 37.2184 25.3647 35.4476 27.1355C33.6768 28.9063 32.7913 31.1459 32.7913 33.8542C32.7913 36.5626 33.6768 38.8022 35.4476 40.573C37.2184 42.3438 39.458 43.2292 42.1663 43.2292ZM60.708 57.0834L71.333 63.3334L81.958 57.0834L71.333 50.9376L60.708 57.0834ZM73.9372 80.8334L84.8747 74.6147V61.4584L73.9372 67.9167V80.8334ZM57.7913 74.5834L68.7288 81.0417V68.0053L57.7913 61.6667V74.5834Z" fill="#FDD231"/>
</g>
</svg>
