<svg width="101" height="100" viewBox="0 0 101 100" fill="none" xmlns="http://www.w3.org/2000/svg">
<mask id="mask0_2323_5306" style="mask-type:alpha" maskUnits="userSpaceOnUse" x="0" y="0" width="101" height="100">
<rect x="0.5" width="100" height="100" fill="#D9D9D9"/>
</mask>
<g mask="url(#mask0_2323_5306)">
<path d="M50.708 66.6666L65.2913 52.0833C66.4719 50.9027 67.2358 49.4617 67.583 47.7603C67.9302 46.0589 67.7566 44.4096 67.0622 42.8124C66.3677 41.2152 65.3261 39.9305 63.9372 38.9583C62.5483 37.986 60.9858 37.4999 59.2497 37.4999C57.5136 37.4999 55.9511 38.0381 54.5622 39.1145C53.1733 40.1909 51.8886 41.3194 50.708 42.4999C49.458 41.3194 48.1559 40.1909 46.8018 39.1145C45.4476 38.0381 43.9025 37.4999 42.1663 37.4999C40.4302 37.4999 38.8504 37.9687 37.4268 38.9062C36.0031 39.8437 34.9441 41.111 34.2497 42.7083C33.5552 44.3055 33.399 45.9548 33.7809 47.6562C34.1629 49.3576 34.9441 50.8333 36.1247 52.0833L50.708 66.6666ZM40.9163 91.6666L38.833 78.5416C37.5136 78.0555 36.1247 77.3958 34.6663 76.5624C33.208 75.7291 31.9233 74.861 30.8122 73.9583L18.5205 79.5833L8.83301 62.4999L20.083 54.2708C19.9441 53.6458 19.8573 52.9339 19.8226 52.1353C19.7879 51.3367 19.7705 50.6249 19.7705 49.9999C19.7705 49.3749 19.7879 48.6631 19.8226 47.8645C19.8573 47.0659 19.9441 46.3541 20.083 45.7291L8.83301 37.4999L18.5205 20.4166L30.8122 26.0416C31.9233 25.1388 33.208 24.2708 34.6663 23.4374C36.1247 22.6041 37.5136 21.9791 38.833 21.5624L40.9163 8.33325H60.083L62.1663 21.4583C63.4858 21.9444 64.892 22.5867 66.3851 23.3853C67.8781 24.1839 69.1455 25.0694 70.1872 26.0416L82.4788 20.4166L92.1663 37.4999L80.9163 45.5208C81.0552 46.2152 81.142 46.9617 81.1768 47.7603C81.2115 48.5589 81.2288 49.3055 81.2288 49.9999C81.2288 50.6944 81.2115 51.4235 81.1768 52.1874C81.142 52.9513 81.0552 53.6805 80.9163 54.3749L92.1663 62.4999L82.4788 79.5833L70.1872 73.9583C69.0761 74.861 67.8087 75.7464 66.3851 76.6145C64.9615 77.4826 63.5552 78.1249 62.1663 78.5416L60.083 91.6666H40.9163ZM45.9163 85.4166H55.083L56.5413 73.7499C58.833 73.1944 61.0031 72.3263 63.0518 71.1457C65.1004 69.9652 66.958 68.5416 68.6247 66.8749L79.6663 71.6666L83.833 64.1666L74.0413 56.9791C74.3191 55.7985 74.5448 54.6353 74.7184 53.4895C74.892 52.3437 74.9788 51.1805 74.9788 49.9999C74.9788 48.8194 74.9094 47.6562 74.7705 46.5103C74.6316 45.3645 74.3886 44.2013 74.0413 43.0207L83.833 35.8333L79.6663 28.3333L68.6247 33.1249C67.0275 31.3194 65.2219 29.8089 63.208 28.5937C61.1941 27.3784 58.9719 26.5971 56.5413 26.2499L55.083 14.5833H45.9163L44.458 26.2499C42.0969 26.736 39.892 27.5694 37.8434 28.7499C35.7948 29.9305 33.9719 31.3888 32.3747 33.1249L21.333 28.3333L17.1663 35.8333L26.958 43.0207C26.6802 44.2013 26.4545 45.3645 26.2809 46.5103C26.1073 47.6562 26.0205 48.8194 26.0205 49.9999C26.0205 51.1805 26.1073 52.3437 26.2809 53.4895C26.4545 54.6353 26.6802 55.7985 26.958 56.9791L17.1663 64.1666L21.333 71.6666L32.3747 66.8749C34.0413 68.5416 35.899 69.9652 37.9476 71.1457C39.9962 72.3263 42.1663 73.1944 44.458 73.7499L45.9163 85.4166Z" fill="#58A700"/>
</g>
</svg>
